<svg width="221" height="221" viewBox="0 0 221 221" fill="none" xmlns="http://www.w3.org/2000/svg">
<g filter="url(#filter0_d)">
<circle cx="110.917" cy="100.529" r="90" fill="white"/>
</g>
<path d="M89.0959 107.657C90.3559 112.067 91.5259 114.137 93.7759 116.567C97.4659 120.347 102.416 122.237 108.716 122.237C116.726 122.237 122.846 119.357 126.896 113.687C131.306 107.657 133.556 99.6472 133.556 90.4672C133.556 81.0172 131.126 72.9172 126.806 67.6072C123.116 62.9272 116.996 60.4072 109.796 60.4072C96.4759 60.4072 87.7459 68.3272 87.7459 80.3872C87.7459 91.1872 95.3959 98.7472 106.286 98.7472C112.046 98.7472 115.646 97.1272 119.696 92.5372C119.336 99.8272 119.156 102.077 118.436 104.237C116.996 109.007 113.756 111.707 109.436 111.707C105.386 111.707 102.866 109.727 101.426 105.407L89.0959 107.657ZM110.066 70.3972C115.016 70.3972 118.976 74.4472 118.976 79.4872C118.976 84.5272 114.926 88.5772 109.796 88.5772C104.846 88.5772 101.066 84.6172 101.066 79.4872C101.066 74.4472 105.116 70.3972 110.066 70.3972Z" fill="#00609C"/>
<path d="M80.199 135.288C77.847 135.288 76.195 137.262 76.195 140.062C76.195 141.406 76.559 142.61 77.231 143.52C77.889 144.416 78.911 144.906 80.129 144.906C82.509 144.906 84.133 142.988 84.133 140.174C84.133 137.206 82.593 135.288 80.199 135.288ZM80.185 136.646C81.599 136.646 82.313 137.85 82.313 140.202C82.313 141.14 82.173 141.91 81.893 142.47C81.571 143.114 80.885 143.548 80.143 143.548C78.771 143.548 78.015 142.344 78.015 140.118C78.015 139.124 78.183 138.228 78.505 137.612C78.813 136.996 79.429 136.646 80.185 136.646ZM92.5931 135.428H91.2631V141.434C91.2631 142.064 91.1371 142.582 90.9271 142.862C90.6611 143.212 90.1151 143.436 89.5411 143.436C89.0091 143.436 88.5051 143.24 88.2251 142.946C87.9451 142.652 87.8191 142.162 87.8191 141.434V135.428H86.0971V141.546C86.0971 142.778 86.2931 143.436 86.8391 143.996C87.3991 144.584 88.2671 144.906 89.3311 144.906C90.3811 144.906 91.2211 144.598 91.8091 144.01C92.4251 143.394 92.5931 142.834 92.5931 141.434V135.428ZM98.3376 144.766V136.87H100.816V135.428H94.0536V136.87H96.5316V144.766H98.3376ZM109.857 135.288C107.505 135.288 105.853 137.262 105.853 140.062C105.853 141.406 106.217 142.61 106.889 143.52C107.547 144.416 108.569 144.906 109.787 144.906C112.167 144.906 113.791 142.988 113.791 140.174C113.791 137.206 112.251 135.288 109.857 135.288ZM109.843 136.646C111.257 136.646 111.971 137.85 111.971 140.202C111.971 141.14 111.831 141.91 111.551 142.47C111.229 143.114 110.543 143.548 109.801 143.548C108.429 143.548 107.673 142.344 107.673 140.118C107.673 139.124 107.841 138.228 108.163 137.612C108.471 136.996 109.087 136.646 109.843 136.646ZM117.561 144.766V140.832H120.851V139.432H117.561V136.87H121.733V135.428H115.839V144.766H117.561ZM134.519 144.766V143.394H131.887V135.246H130.767C130.557 135.61 130.277 135.904 129.661 136.436C129.115 136.898 128.835 137.038 127.645 137.486V139.18C128.429 138.872 129.255 138.326 130.193 137.486V143.394H127.379V144.766H134.519ZM139.217 135.288C138.125 135.288 137.313 135.708 136.613 136.646C135.955 137.514 135.633 138.69 135.633 140.16C135.633 143.1 137.005 144.906 139.217 144.906C140.477 144.906 141.457 144.36 142.073 143.268C142.591 142.4 142.857 141.336 142.857 140.174C142.857 137.15 141.471 135.288 139.217 135.288ZM139.259 136.534C140.029 136.534 140.491 136.898 140.799 137.738C140.995 138.284 141.121 139.194 141.121 140.16C141.121 142.484 140.505 143.59 139.217 143.59C137.929 143.59 137.341 142.47 137.341 140.048C137.341 137.682 137.971 136.534 139.259 136.534Z" fill="#00609C"/>
<path d="M106.057 190.258C95.3063 189.611 92.66 188.803 95.9679 189.126C104.838 189.744 113.745 189.635 122.596 188.803C137.395 187.431 151.835 183.545 165.268 177.317C176.029 172.062 186.131 165.602 195.369 158.067C202.151 152.567 207.774 148.523 211.082 148.523C211.247 148.523 211.578 148.685 211.743 148.685C214.39 149.17 213.232 154.509 204.631 161.788C196.196 168.906 180.815 178.126 159.148 184.273C144.499 188.386 129.335 190.479 114.095 190.491C111.002 190.491 108.293 190.398 106.057 190.258Z" fill="url(#paint0_linear)"/>
<path d="M178.001 160.009C170.393 168.744 162.785 174.567 163.281 175.538C163.612 176.509 175.355 171.979 186.436 161.95C197.683 151.921 199.833 141.082 195.864 141.568C191.729 141.729 185.775 151.435 178.001 160.009Z" fill="#DA9BC5"/>
<path d="M102.562 191.067C100.02 190.837 97.3154 190.516 94.3102 190.097H94.1448C88.7733 189.51 83.4619 188.482 78.267 187.023C76.6131 186.538 75.2899 186.052 74.1321 185.729C71.4858 184.758 69.5012 184.111 68.5088 183.626C67.92 183.32 66.688 182.278 66.688 182.278C66.688 182.278 66.0448 181.943 66.6883 181.259C67.3317 180.574 80.9617 187.739 93.6486 188.802C106.335 189.866 96.4603 189.126 97.2873 189.288C99.9336 189.45 102.745 189.611 105.557 189.611C112.512 189.586 119.443 188.827 126.231 187.347C133.306 185.606 140.265 183.445 147.071 180.876C152.866 178.851 158.505 176.418 163.941 173.597C165.264 172.788 166.752 171.979 168.241 171.17C169.73 170.361 171.053 169.391 172.541 168.744C173.66 168.218 174.822 167.785 176.015 167.45C176.015 167.45 176.345 167.288 177.172 168.097H177.668C177.787 168.132 177.899 168.187 177.999 168.258V169.714C177.007 172.141 169.233 177.479 165.099 179.582L161.129 181.523C155.128 184.307 148.87 186.528 142.44 188.155C138.801 188.964 134.997 189.611 131.358 190.097H131.193C128.547 190.42 125.9 190.744 123.585 190.905C122.954 190.964 122.334 191.018 121.726 191.067H102.562Z" fill="url(#paint1_linear)"/>
<defs>
<filter id="filter0_d" x="0.916992" y="0.528564" width="220" height="220" filterUnits="userSpaceOnUse" color-interpolation-filters="sRGB">
<feFlood flood-opacity="0" result="BackgroundImageFix"/>
<feColorMatrix in="SourceAlpha" type="matrix" values="0 0 0 0 0 0 0 0 0 0 0 0 0 0 0 0 0 0 127 0"/>
<feOffset dy="10"/>
<feGaussianBlur stdDeviation="10"/>
<feColorMatrix type="matrix" values="0 0 0 0 0.596078 0 0 0 0 0.792157 0 0 0 0 0.921569 0 0 0 1 0"/>
<feBlend mode="normal" in2="BackgroundImageFix" result="effect1_dropShadow"/>
<feBlend mode="normal" in="SourceGraphic" in2="effect1_dropShadow" result="shape"/>
</filter>
<linearGradient id="paint0_linear" x1="209.333" y1="171.302" x2="99.0664" y2="166.161" gradientUnits="userSpaceOnUse">
<stop stop-color="#97CAEB"/>
<stop offset="0.0667423" stop-color="#97CAEB"/>
<stop offset="0.1774" stop-color="#7CB7DD"/>
<stop offset="0.4178" stop-color="#4791C1"/>
<stop offset="0.6263" stop-color="#2076AD"/>
<stop offset="0.7924" stop-color="#0966A0"/>
<stop offset="0.8953" stop-color="#00609C"/>
<stop offset="1" stop-color="#00609C"/>
</linearGradient>
<linearGradient id="paint1_linear" x1="0.53353" y1="179.365" x2="177.888" y2="179.365" gradientUnits="userSpaceOnUse">
<stop stop-color="#97CAEB"/>
<stop offset="0.2666" stop-color="#97CAEB"/>
<stop offset="0.3397" stop-color="#7CB7DD"/>
<stop offset="0.4986" stop-color="#4791C1"/>
<stop offset="0.6363" stop-color="#2076AD"/>
<stop offset="0.7461" stop-color="#0966A0"/>
<stop offset="0.8141" stop-color="#00609C"/>
<stop offset="1" stop-color="#00609C"/>
</linearGradient>
</defs>
</svg>
